<svg width="376" height="75" viewBox="0 0 376 75" fill="none" xmlns="http://www.w3.org/2000/svg">
<rect x="0.5" y="0.5" width="375" height="74" rx="4.5" fill="url(#paint0_linear_4179_8845)"/>
<rect x="0.5" y="0.5" width="375" height="74" rx="4.5" stroke="#9747FF" stroke-dasharray="10 5"/>
<g clip-path="url(#clip0_4179_8845)">
<g clip-path="url(#clip1_4179_8845)">
<path d="M85.5942 20.2466C85.13 20.5567 84.7914 20.9483 84.486 21.4106C83.361 21.4297 82.3027 21.7517 81.5036 22.5815C80.7421 23.3724 80.4824 24.3323 80.5179 25.4074L80.5213 25.4887C80.6629 26.4536 81.0519 27.2441 81.8385 27.8394C82.0247 27.9802 82.4388 28.1852 82.8606 28.3938C83.4044 28.6629 83.9608 28.9382 84.0572 29.0904C84.3891 29.5647 85.2757 29.8417 85.8252 29.9426C86.6853 30.1004 87.4531 30.0297 88.2809 29.7843C89.4612 31.6142 89.9592 33.5359 90.2329 35.6818L90.1353 35.8634C89.8891 35.6469 89.6862 35.3137 89.4849 34.983C89.3419 34.7483 89.1998 34.5148 89.0435 34.3255C87.4737 32.4206 85.0882 31.0732 82.5619 31.2154C82.0626 31.2434 80.9119 31.3597 80.5219 31.6934C80.463 32.1559 80.9691 32.8851 81.2568 33.2534C82.9408 35.4091 85.679 35.9393 88.2268 36.4326C88.4608 36.4779 88.6932 36.5229 88.923 36.5688C88.9399 36.5722 88.9579 36.5756 88.9766 36.5791C89.1718 36.6162 89.4501 36.6691 89.4984 36.8579L89.472 36.927C86.8706 36.4892 84.1544 36.8049 81.9615 38.3769C80.0871 39.7206 79.011 41.8416 78.6477 44.0856C78.2164 46.7491 78.6665 49.7298 80.2698 51.9473C81.5661 53.7402 83.4806 54.8777 85.6601 55.2223C88.0688 55.603 90.6862 55.1554 92.6769 53.6978C94.566 52.3146 95.6355 50.2002 95.982 47.9185C96.3989 45.1724 96.0159 42.253 94.3345 39.9799C93.6083 38.9982 92.7514 38.3303 91.7076 37.715C91.685 37.7016 91.6621 37.689 91.6396 37.6765C91.5113 37.6053 91.3913 37.5387 91.3561 37.3779C93.6967 36.5769 96.0118 35.6124 97.8753 33.9358C98.7792 33.1226 100.355 31.2273 100.419 30.0281C100.313 29.8583 100.28 29.8275 100.085 29.7701C99.6808 29.6508 99.1713 29.6347 98.7462 29.6256C96.4858 29.5767 94.5776 30.61 93.1732 32.3401C93.0899 32.4425 92.9658 32.6356 92.8274 32.8508C92.5579 33.2701 92.2342 33.7734 92.0533 33.8545C92.0372 33.8617 92.0208 33.868 92.0044 33.8743C91.9956 33.8777 91.9868 33.881 91.9781 33.8846C92.1291 33.2618 92.3292 32.6441 92.5291 32.0268C92.6749 31.5765 92.8208 31.1263 92.9474 30.6745L93.0136 30.6223C94.609 29.3552 95.7513 27.448 95.9729 25.4081C96.1384 23.8897 95.7794 22.5614 94.8233 21.3662C94.6653 21.4483 94.509 21.5331 94.3584 21.6275C93.0045 22.4785 92.275 24.123 91.9491 25.6357C91.6216 27.1548 91.5463 29.3485 92.4189 30.6976C91.8698 32.4239 91.3371 34.1553 90.8201 35.8913C90.6084 33.6565 89.9459 31.4137 88.7759 29.4956C88.9658 29.3229 89.142 29.1357 89.3024 28.9356C89.9724 28.1102 90.7713 26.5254 90.6605 25.4453C90.5384 25.2884 90.4027 24.5552 90.2872 23.9311C90.2221 23.5791 90.1634 23.2617 90.1171 23.1021C89.8905 22.3174 89.5845 21.5837 89.2355 20.8467C88.8963 20.3258 88.3925 19.9083 87.7731 19.7708C87.0049 19.6004 86.238 19.8167 85.5942 20.2466ZM86.4017 37.4927C87.4868 37.3856 88.4883 37.4933 89.4323 38.0873C90.9558 39.0464 91.6936 40.8413 92.0765 42.5272C92.7332 45.4231 92.7299 50.1291 91.0658 52.7144C90.3884 53.7668 89.515 54.2795 88.3178 54.5392C87.201 54.6593 86.1369 54.5483 85.1796 53.9165C83.6069 52.8787 82.9163 50.9068 82.5524 49.1403C81.9429 46.1817 81.8597 41.9266 83.6134 39.3055C84.3153 38.2564 85.1888 37.7422 86.4017 37.4927Z" fill="#353C3A"/>
<path d="M84.486 21.4106C84.7913 20.9483 85.1298 20.5567 85.5942 20.2466C86.2379 19.8167 87.0049 19.6004 87.7731 19.7708C88.3924 19.9083 88.8962 20.3258 89.2354 20.8467C88.1743 21.1539 87.8124 21.5617 87.1972 22.4743C87.0354 22.9188 86.8968 23.3839 86.8576 23.8577C87.6041 24.5157 88.0838 25.2561 88.15 26.2752C88.158 26.3969 88.167 26.4196 88.1005 26.5182L87.8292 26.438C87.5875 26.6146 87.5269 26.9155 87.4818 27.1975C87.4014 27.7012 87.3896 28.2444 87.3995 28.7541C86.7767 28.5718 86.2283 28.5086 85.58 28.5387C85.0466 28.6707 84.5432 28.8247 84.0571 29.0904C83.886 28.8202 82.2646 28.1618 81.8384 27.8394C81.0518 27.2441 80.6628 26.4536 80.5212 25.4887L80.5178 25.4074C80.4823 24.3323 80.742 23.3724 81.5035 22.5815C82.3026 21.7517 83.3609 21.4297 84.486 21.4106Z" fill="#EAE9E8"/>
<path d="M84.486 21.4106C84.7913 20.9483 85.1298 20.5567 85.5942 20.2466C86.2379 19.8167 87.0049 19.6004 87.7731 19.7708C88.3924 19.9083 88.8962 20.3258 89.2354 20.8467C88.1743 21.1539 87.8124 21.5617 87.1972 22.4743C87.0354 22.9188 86.8968 23.3839 86.8576 23.8577L86.1123 23.5571C85.815 23.565 85.2293 23.5053 84.9746 23.6338L84.6462 23.7936C84.5195 23.9087 84.3716 24.0822 84.2261 24.166L83.9509 24.6412L83.7603 24.6529C82.8745 24.637 82.0382 24.7336 81.2275 25.1162C80.9983 25.2243 80.7578 25.4169 80.5212 25.4887L80.5178 25.4074C80.4823 24.3323 80.742 23.3724 81.5035 22.5815C82.3026 21.7517 83.3609 21.4297 84.486 21.4106Z" fill="#DB8778"/>
<path d="M86.1123 23.5571C86.2479 23.1937 86.3623 22.7468 86.6424 22.4696C86.8952 22.3673 86.9461 22.4008 87.1971 22.4743C87.0353 22.9188 86.8967 23.3839 86.8575 23.8577L86.1123 23.5571Z" fill="#353C3A"/>
<path d="M84.646 23.7935C84.3782 23.6094 84.0703 23.4215 83.8536 23.1761C83.7131 23.0171 83.6395 22.844 83.6493 22.6319L83.7902 22.5624C84.3831 22.6924 84.6366 23.1774 84.9744 23.6338L84.646 23.7935Z" fill="#353C3A"/>
<path d="M83.76 24.6529C83.6485 24.6391 83.5227 24.6292 83.4145 24.5972C83.2336 24.5439 83.2045 24.469 83.1357 24.3136C83.2129 24.2054 83.2314 24.1755 83.3538 24.1217C83.6499 23.9916 83.9357 24.0575 84.2258 24.166L83.9506 24.6412L83.76 24.6529Z" fill="#353C3A"/>
<path d="M85.2377 21.8927C85.3378 21.936 85.436 21.9876 85.4992 22.0804C85.753 22.453 85.7105 23.1968 85.6644 23.6285L85.3117 23.5238C85.2634 23.4709 85.226 23.4288 85.1962 23.3627C84.9884 22.9019 85.0742 22.3514 85.2377 21.8927Z" fill="#353C3A"/>
<path d="M83.7606 24.6529L83.9512 24.6412C83.7189 25.5196 83.5937 26.4081 84.08 27.2334C84.427 27.8226 84.99 28.2192 85.5803 28.5387C85.0468 28.6707 84.5435 28.8247 84.0574 29.0904C83.8863 28.8202 82.2649 28.1618 81.8387 27.8394C81.0521 27.2441 80.6631 26.4536 80.5215 25.4887C80.758 25.4169 80.9986 25.2243 81.2277 25.1162C82.0385 24.7336 82.8748 24.637 83.7606 24.6529Z" fill="#EBB19F"/>
<path d="M91.9783 33.8846C92.0032 33.8746 92.0288 33.8656 92.0536 33.8545C92.3274 33.7318 92.9278 32.6423 93.1735 32.3401C94.5779 30.61 96.486 29.5767 98.7464 29.6256C99.1716 29.6347 99.681 29.6508 100.085 29.7701C100.281 29.8275 100.314 29.8583 100.42 30.0281C100.355 31.2273 98.7795 33.1226 97.8755 33.9358C96.0121 35.6124 93.697 36.5769 91.3564 37.3779C92.5722 35.8382 93.9948 34.3274 95.5166 33.0896C96.046 32.6591 98.2816 31.2908 98.4437 31.0093C98.3718 30.9625 98.3618 30.9326 98.2725 30.9456C96.2511 31.2396 92.3572 35.3925 91.1479 36.9627C91.301 35.8936 91.564 34.8839 91.9783 33.8846Z" fill="#97A898"/>
<path d="M89.4719 36.927L89.4984 36.8579C89.4455 36.651 89.1163 36.6073 88.9229 36.5688C86.1907 36.0229 83.0954 35.6071 81.2568 33.2534C80.969 32.8851 80.4629 32.1559 80.5218 31.6934C80.9119 31.3597 82.0625 31.2434 82.5618 31.2154C85.0882 31.0732 87.4737 32.4206 89.0435 34.3255C89.4198 34.7815 89.7143 35.4933 90.1353 35.8634L90.2329 35.6817C90.2759 35.9372 90.2932 36.1383 90.256 36.3978C89.9525 36.3005 89.4728 35.6772 89.1874 35.4513C87.5772 34.1749 84.7529 32.4389 82.6218 32.5001L82.5667 32.5753C83.0975 32.9887 83.9945 33.1529 84.6277 33.3725C86.5377 34.0351 88.6673 35.2914 89.8847 36.9438L89.8193 37.0173C89.7134 36.9932 89.5646 36.9794 89.4719 36.927Z" fill="#97A898"/>
<path d="M94.8231 21.3662C95.7792 22.5614 96.1381 23.8896 95.9727 25.4081C95.7511 27.448 94.6088 29.3552 93.0134 30.6223L92.9472 30.6745C93.3161 28.8544 93.5899 26.9358 94.1308 25.1633C94.2491 24.7777 94.5121 24.0815 94.3169 23.7144L94.1804 23.769C93.3475 25.0872 92.9257 28.9693 92.4187 30.6976C91.5461 29.3485 91.6214 27.1548 91.9489 25.6356C92.2748 24.123 93.0043 22.4785 94.3582 21.6275C94.5088 21.5331 94.6651 21.4483 94.8231 21.3662Z" fill="#97A898"/>
<path d="M87.197 22.4743C87.8123 21.5617 88.1741 21.1539 89.2352 20.8467C89.5843 21.5837 89.8903 22.3174 90.1169 23.1021C90.2451 23.5448 90.4692 25.1999 90.6603 25.4453C89.9821 25.5823 89.5115 25.9471 89.1343 26.5213C88.9244 26.8411 88.7601 27.2056 88.6082 27.5567C88.4402 27.2458 88.1684 26.8624 88.1004 26.5182C88.1669 26.4196 88.1579 26.3969 88.1499 26.2752C88.0837 25.2561 87.604 24.5157 86.8574 23.8577C86.8966 23.3839 87.0352 22.9188 87.197 22.4743Z" fill="#EBB19F"/>
<path d="M119.553 36.7833C118.905 36.7641 118.26 36.7997 117.615 36.8536C116.047 37.1697 114.165 37.7041 113.227 39.114C112.759 39.8177 112.55 40.6868 112.717 41.5219C112.839 42.1354 113.167 42.6961 113.698 43.0408C114.19 43.3595 114.895 43.505 115.47 43.3762C115.947 43.2692 116.353 42.9596 116.611 42.5473C116.903 42.079 116.988 41.485 116.862 40.9498C116.784 40.6196 116.559 40.3597 116.339 40.107C115.975 39.6874 115.628 39.2879 116.006 38.6198C116.314 38.0767 117.043 37.753 117.622 37.6194C118.517 37.4128 119.586 37.476 120.377 37.9777C121.151 38.4686 121.582 39.275 121.773 40.1525C122.009 41.241 122.064 42.829 121.43 43.7795C120.855 44.642 119.39 44.9807 117.746 45.3612C115.388 45.9065 112.66 46.5377 111.644 48.9198C111.253 49.8354 111.37 50.7754 111.458 51.4829C111.507 51.8763 111.547 52.1978 111.486 52.4034C111.497 52.4175 111.508 52.4315 111.518 52.4457C111.645 52.617 111.748 52.8018 111.851 52.9868C111.926 53.1217 112.002 53.2568 112.086 53.3869C112.793 54.4727 113.746 54.9446 115.005 55.1386C116.906 55.4315 119.013 55.0143 120.572 53.8593C120.945 53.5836 121.633 52.9638 121.706 52.4855C121.713 52.4939 121.719 52.5022 121.725 52.5106L121.733 52.5217C121.961 52.8633 122.042 53.205 122.118 53.5264C122.279 54.2023 122.418 54.7882 123.855 55.0937C124.933 55.3229 126.602 55.2068 127.558 54.5711C127.754 54.4412 127.956 54.2389 127.994 53.9984C127.999 53.9668 128 53.9433 128 53.9182C128 53.8983 127.999 53.8774 127.999 53.8505C127.983 53.8353 127.969 53.8219 127.957 53.8101C127.886 53.7405 127.873 53.7274 127.743 53.7308C127.554 53.7357 127.359 53.7704 127.165 53.8051C126.672 53.8933 126.179 53.9813 125.767 53.5784C125.155 52.9808 125.166 51.5974 125.174 50.71C125.174 50.6414 125.175 50.5758 125.175 50.5137C125.19 48.5948 125.194 46.6758 125.188 44.7568C125.181 40.4183 125.042 36.9465 119.553 36.7833ZM121.515 44.7935L121.752 44.7862L121.823 44.8853C121.891 45.4372 121.872 45.9921 121.852 46.547C121.843 46.801 121.834 47.055 121.834 47.3088C121.833 47.6434 121.844 47.9842 121.856 48.3271C121.883 49.1473 121.911 49.9805 121.775 50.7717C121.699 51.2187 121.535 51.6466 121.294 52.0311C120.765 52.8748 119.891 53.3995 118.929 53.6048C117.79 53.8479 116.896 53.5962 115.938 52.982C115.88 52.8785 115.824 52.7797 115.769 52.6846C115.209 51.702 114.875 51.1154 114.988 49.8038C115.201 47.3267 117.663 46.4064 119.683 45.6509L119.839 45.5927L119.947 45.552C120.023 45.5234 120.107 45.4934 120.196 45.4617L120.197 45.4612C120.621 45.3097 121.155 45.1188 121.446 44.8586C121.455 44.8501 121.465 44.8414 121.474 44.8327C121.488 44.8197 121.501 44.8065 121.515 44.7935Z" fill="#353C3A"/>
<path d="M119.869 45.5812C119.844 45.5905 119.819 45.5999 119.794 45.6093L119.838 45.5927L119.869 45.5812Z" fill="#EAE9E8"/>
<path d="M62.9355 27.0013C63.3363 26.9573 63.7714 26.9721 64.1734 27.0118C65.7225 27.1519 67.1511 27.9064 68.1404 29.1067C68.8009 29.9222 69.1856 30.911 69.0651 31.9683C68.9947 32.587 68.7635 33.1851 68.2614 33.5792C67.7249 34.0004 66.9562 34.2093 66.2799 34.1258C65.7104 34.0555 65.2133 33.7543 64.866 33.2995C64.5568 32.8946 64.4222 32.2918 64.4978 31.7903C64.6638 30.6888 65.8175 30.5874 66.5498 30.0325C66.7465 29.8834 66.8291 29.7322 66.8646 29.4906C66.8198 29.2084 66.7049 29.0243 66.515 28.8198C65.8105 28.0608 64.738 27.7106 63.7225 27.6853C62.8478 27.6633 61.9818 27.8965 61.3469 28.5239C59.8306 30.0219 60.2465 34.7493 60.251 36.8C61.2662 36.8096 67.0785 36.63 67.6023 37.0156C67.6537 37.1863 67.6312 37.2852 67.5873 37.4558C67.1895 37.7279 61.263 37.5838 60.2452 37.5985L60.2536 43.4641C60.7766 43.4652 61.3021 43.4719 61.8246 43.45C65.5043 43.2963 64.4027 40.6401 65.2871 39.7604C65.3797 39.6682 65.4279 39.6935 65.5558 39.6935C65.8119 40.0331 65.6963 46.3836 65.6961 47.3368C65.699 47.5605 65.6829 47.7794 65.6645 48.0021L65.5065 48.131C65.3018 48.1335 65.2515 48.1653 65.0915 48.0286C64.9664 46.9982 64.671 45.6913 63.902 44.9523C62.9485 44.0359 61.4694 44.2281 60.2535 44.2436C60.2464 45.994 59.8594 52.3718 60.9812 53.5878C61.5951 54.2534 62.7202 54.1655 63.1526 54.7072L63.1334 54.8257C62.893 54.9588 62.5979 54.9663 62.3286 54.9774C61.5553 55.0094 54.6091 54.9925 54.2275 54.8765C54.151 54.8534 54.1805 54.849 54.1014 54.8591C54.0864 54.861 54.072 54.8655 54.0573 54.8688L54.0186 54.7774C54.1232 54.3859 55.7135 54.0763 56.1683 53.6016C57.1652 52.5609 56.8043 46.0511 56.7943 44.2568C56.0939 44.2456 54.6926 44.4903 54.1667 44.0583C54.0689 43.8674 54.0418 43.8319 54.0638 43.6218C54.4524 43.2743 56.2347 43.4404 56.7875 43.4387C56.7965 41.4826 56.7952 39.5265 56.7836 37.5703C55.9327 37.5862 54.7923 37.7361 54.0204 37.3288L54 37.0851C54.5306 36.6422 56.0985 36.8049 56.7887 36.8104C56.7579 34.27 56.7946 31.2446 58.4795 29.1639C59.5948 27.7867 61.2271 27.1795 62.9355 27.0013Z" fill="#353C3A"/>
<path d="M75.2539 25.7144L75.3494 25.7332C75.4792 25.8852 75.4795 25.9667 75.4895 26.1604C75.5982 28.2653 75.4813 30.4381 75.4805 32.5505L75.4769 45.9147C75.4767 47.519 75.2464 51.8347 75.7565 53.0939C76.3226 54.4918 77.6452 54.0504 78.0716 54.7072L78.0049 54.8821C77.6188 55.0324 70.9814 54.9513 69.9106 54.9842C69.8258 54.9841 69.8425 54.9933 69.7794 54.9683C69.6169 54.9038 69.6212 54.8397 69.5532 54.6898C69.7138 54.1384 70.8938 54.3609 71.375 53.8255C71.7921 53.3615 71.9546 52.7445 72.0309 52.1411C72.189 50.8904 72.1405 49.6052 72.14 48.3466L72.1352 43.0465L72.1315 35.4571C72.1335 33.7722 72.176 32.0773 72.095 30.3943C72.0059 28.5434 72.0687 28.1981 70.239 27.6319C70.0542 27.5747 69.7915 27.513 69.6545 27.3685C69.5682 27.2775 69.5939 27.2466 69.5918 27.1292L69.6688 27.139C69.8135 26.971 70.4779 26.9348 70.7102 26.9053C72.2993 26.703 73.8141 26.4468 75.2539 25.7144Z" fill="#353C3A"/>
<path d="M102.24 36.6825L102.489 36.7139C102.509 36.7449 102.541 36.7898 102.555 36.8266C102.74 37.3098 102.639 40.5456 102.452 40.986C102.719 40.7536 102.834 40.4255 102.993 40.1169C103.554 39.026 104.248 38.0688 105.369 37.4962C106.533 36.9011 108.044 36.5911 109.307 37.0162C110.009 37.2521 110.575 37.7362 110.897 38.405C111.232 39.1027 111.298 39.9239 111.029 40.6545C110.809 41.2489 110.367 41.7791 109.785 42.045C109.233 42.2968 108.621 42.2751 108.063 42.0522C107.499 41.8268 107.021 41.4239 106.791 40.8521C106.347 39.7525 106.944 39.3549 107.287 38.4508C107.354 38.2758 107.341 38.2218 107.265 38.0578C107.029 37.9443 106.781 37.9928 106.538 38.0514C103.431 38.7963 102.702 42.4678 102.639 45.2076C102.624 45.8825 102.649 48.2481 102.649 48.2481C102.649 48.2481 102.623 50.5219 102.649 51.1751C102.711 52.7621 102.82 53.8382 104.517 54.3474C104.765 54.4218 105.081 54.4681 105.27 54.6543C105.321 54.7036 105.296 54.7934 105.295 54.861C105.276 54.8755 105.257 54.8909 105.238 54.9045C105.133 54.9768 97.2286 55.0042 96.7902 54.8944L96.7373 54.7123C96.9201 54.0224 98.2484 54.3678 98.7604 53.7161C99.0151 53.3917 99.1135 52.9689 99.1714 52.5691C99.4833 50.4234 99.3327 48.1048 99.3277 45.9325C99.3236 44.133 99.4386 42.216 99.1938 40.438C98.8538 37.9639 97.9531 39.1255 96.93 38.3462C96.8407 38.1509 96.8548 38.1301 96.9036 37.9178C98.6462 37.5879 100.581 37.5731 102.183 36.7137L102.24 36.6825Z" fill="#353C3A"/>
</g>
</g>
<g clip-path="url(#clip2_4179_8845)">
<g clip-path="url(#clip3_4179_8845)">
<path d="M273.594 20.2466C273.13 20.5567 272.791 20.9483 272.486 21.4106C271.361 21.4297 270.303 21.7517 269.504 22.5815C268.742 23.3724 268.482 24.3323 268.518 25.4074L268.521 25.4887C268.663 26.4536 269.052 27.2441 269.838 27.8394C270.025 27.9802 270.439 28.1852 270.861 28.3938C271.404 28.6629 271.961 28.9382 272.057 29.0904C272.389 29.5647 273.276 29.8417 273.825 29.9426C274.685 30.1004 275.453 30.0297 276.281 29.7843C277.461 31.6142 277.959 33.5359 278.233 35.6818L278.135 35.8634C277.889 35.6469 277.686 35.3137 277.485 34.983C277.342 34.7483 277.2 34.5148 277.044 34.3255C275.474 32.4206 273.088 31.0732 270.562 31.2154C270.063 31.2434 268.912 31.3597 268.522 31.6934C268.463 32.1559 268.969 32.8851 269.257 33.2534C270.941 35.4091 273.679 35.9393 276.227 36.4326C276.461 36.4779 276.693 36.5229 276.923 36.5688C276.94 36.5722 276.958 36.5756 276.977 36.5791C277.172 36.6162 277.45 36.6691 277.498 36.8579L277.472 36.927C274.871 36.4892 272.154 36.8049 269.961 38.3769C268.087 39.7206 267.011 41.8416 266.648 44.0856C266.216 46.7491 266.667 49.7298 268.27 51.9473C269.566 53.7402 271.481 54.8777 273.66 55.2223C276.069 55.603 278.686 55.1554 280.677 53.6978C282.566 52.3146 283.635 50.2002 283.982 47.9185C284.399 45.1724 284.016 42.253 282.334 39.9799C281.608 38.9982 280.751 38.3303 279.708 37.715C279.685 37.7017 279.662 37.689 279.64 37.6765C279.511 37.6053 279.391 37.5387 279.356 37.3779C281.697 36.5769 284.012 35.6124 285.875 33.9358C286.779 33.1226 288.355 31.2273 288.419 30.0281C288.313 29.8583 288.28 29.8275 288.085 29.7701C287.681 29.6508 287.171 29.6347 286.746 29.6256C284.486 29.5767 282.578 30.61 281.173 32.3401C281.09 32.4426 280.966 32.6356 280.827 32.8508C280.558 33.2701 280.234 33.7734 280.053 33.8545C280.037 33.8617 280.021 33.868 280.004 33.8743C279.996 33.8777 279.987 33.8811 279.978 33.8846C280.129 33.2618 280.329 32.6441 280.529 32.0268C280.675 31.5765 280.821 31.1263 280.947 30.6745L281.014 30.6223C282.609 29.3552 283.751 27.448 283.973 25.4081C284.138 23.8897 283.779 22.5614 282.823 21.3662C282.665 21.4483 282.509 21.5331 282.358 21.6275C281.004 22.4785 280.275 24.123 279.949 25.6357C279.622 27.1548 279.546 29.3485 280.419 30.6976C279.87 32.4239 279.337 34.1553 278.82 35.8913C278.608 33.6565 277.946 31.4137 276.776 29.4956C276.966 29.3229 277.142 29.1357 277.302 28.9356C277.972 28.1102 278.771 26.5254 278.66 25.4453C278.538 25.2884 278.403 24.5552 278.287 23.9311C278.222 23.5791 278.163 23.2617 278.117 23.1021C277.89 22.3175 277.584 21.5837 277.235 20.8467C276.896 20.3258 276.392 19.9083 275.773 19.7708C275.005 19.6004 274.238 19.8167 273.594 20.2466ZM274.402 37.4927C275.487 37.3856 276.488 37.4933 277.432 38.0873C278.956 39.0464 279.694 40.8413 280.076 42.5272C280.733 45.4231 280.73 50.1291 279.066 52.7145C278.388 53.7668 277.515 54.2795 276.318 54.5392C275.201 54.6593 274.137 54.5483 273.18 53.9165C271.607 52.8787 270.916 50.9068 270.552 49.1403C269.943 46.1817 269.86 41.9266 271.613 39.3055C272.315 38.2564 273.189 37.7422 274.402 37.4927Z" fill="#F2F2F2"/>
<path d="M272.486 21.4106C272.791 20.9483 273.13 20.5567 273.594 20.2466C274.238 19.8167 275.005 19.6004 275.773 19.7708C276.392 19.9083 276.896 20.3258 277.235 20.8467C276.174 21.1539 275.812 21.5617 275.197 22.4743C275.035 22.9188 274.897 23.3839 274.858 23.8577C275.604 24.5157 276.084 25.2561 276.15 26.2752C276.158 26.3969 276.167 26.4196 276.101 26.5182L275.829 26.438C275.587 26.6146 275.527 26.9155 275.482 27.1975C275.401 27.7012 275.39 28.2444 275.4 28.7541C274.777 28.5718 274.228 28.5086 273.58 28.5387C273.047 28.6707 272.543 28.8247 272.057 29.0904C271.886 28.8202 270.265 28.1618 269.838 27.8394C269.052 27.2441 268.663 26.4536 268.521 25.4887L268.518 25.4074C268.482 24.3323 268.742 23.3724 269.504 22.5815C270.303 21.7517 271.361 21.4297 272.486 21.4106Z" fill="#EEEE60"/>
<path d="M272.486 21.4106C272.791 20.9483 273.13 20.5567 273.594 20.2466C274.238 19.8167 275.005 19.6004 275.773 19.7708C276.392 19.9083 276.896 20.3258 277.235 20.8467C276.174 21.1539 275.812 21.5617 275.197 22.4743C275.035 22.9188 274.897 23.3839 274.858 23.8577L274.112 23.5571C273.815 23.565 273.229 23.5053 272.975 23.6338L272.646 23.7936C272.52 23.9087 272.372 24.0822 272.226 24.166L271.951 24.6412L271.76 24.6529C270.875 24.637 270.038 24.7336 269.227 25.1162C268.998 25.2243 268.758 25.4169 268.521 25.4887L268.518 25.4074C268.482 24.3323 268.742 23.3724 269.504 22.5815C270.303 21.7517 271.361 21.4297 272.486 21.4106Z" fill="#AC321C"/>
<path d="M274.112 23.5571C274.248 23.1937 274.362 22.7468 274.642 22.4696C274.895 22.3673 274.946 22.4008 275.197 22.4743C275.035 22.9188 274.897 23.3839 274.858 23.8577L274.112 23.5571Z" fill="#F2F2F2"/>
<path d="M272.646 23.7935C272.378 23.6094 272.07 23.4215 271.854 23.1761C271.713 23.0171 271.639 22.844 271.649 22.6319L271.79 22.5624C272.383 22.6924 272.637 23.1774 272.974 23.6338L272.646 23.7935Z" fill="#F2F2F2"/>
<path d="M271.76 24.6529C271.648 24.6391 271.523 24.6292 271.414 24.5972C271.234 24.5439 271.204 24.469 271.136 24.3136C271.213 24.2054 271.231 24.1755 271.354 24.1217C271.65 23.9916 271.936 24.0575 272.226 24.166L271.951 24.6412L271.76 24.6529Z" fill="#F2F2F2"/>
<path d="M273.238 21.8927C273.338 21.936 273.436 21.9876 273.499 22.0804C273.753 22.453 273.71 23.1968 273.664 23.6285L273.312 23.5238C273.263 23.4709 273.226 23.4288 273.196 23.3627C272.988 22.9019 273.074 22.3514 273.238 21.8927Z" fill="#F2F2F2"/>
<path d="M271.761 24.6529L271.951 24.6412C271.719 25.5196 271.594 26.4081 272.08 27.2334C272.427 27.8226 272.99 28.2192 273.58 28.5387C273.047 28.6707 272.543 28.8247 272.057 29.0904C271.886 28.8202 270.265 28.1618 269.839 27.8394C269.052 27.2441 268.663 26.4536 268.521 25.4887C268.758 25.4169 268.999 25.2243 269.228 25.1162C270.038 24.7336 270.875 24.637 271.761 24.6529Z" fill="#78270E"/>
<path d="M279.978 33.8846C280.003 33.8746 280.029 33.8656 280.054 33.8545C280.327 33.7318 280.928 32.6423 281.173 32.3401C282.578 30.61 284.486 29.5767 286.746 29.6256C287.172 29.6347 287.681 29.6508 288.085 29.7701C288.281 29.8275 288.314 29.8583 288.42 30.0281C288.355 31.2273 286.78 33.1226 285.876 33.9358C284.012 35.6124 281.697 36.5769 279.356 37.3779C280.572 35.8382 281.995 34.3274 283.517 33.0896C284.046 32.6591 286.282 31.2908 286.444 31.0093C286.372 30.9625 286.362 30.9326 286.273 30.9456C284.251 31.2396 280.357 35.3925 279.148 36.9627C279.301 35.8936 279.564 34.8839 279.978 33.8846Z" fill="#1A5E07"/>
<path d="M277.472 36.927L277.498 36.8579C277.445 36.651 277.116 36.6073 276.923 36.5688C274.191 36.0229 271.095 35.6071 269.257 33.2534C268.969 32.8851 268.463 32.1559 268.522 31.6934C268.912 31.3597 270.063 31.2434 270.562 31.2154C273.088 31.0732 275.474 32.4206 277.043 34.3255C277.42 34.7815 277.714 35.4933 278.135 35.8634L278.233 35.6817C278.276 35.9372 278.293 36.1383 278.256 36.3978C277.952 36.3005 277.473 35.6772 277.187 35.4513C275.577 34.1749 272.753 32.4389 270.622 32.5001L270.567 32.5753C271.098 32.9887 271.995 33.1529 272.628 33.3725C274.538 34.0351 276.667 35.2914 277.885 36.9438L277.819 37.0173C277.713 36.9932 277.565 36.9794 277.472 36.927Z" fill="#1A5E07"/>
<path d="M282.823 21.3662C283.779 22.5614 284.138 23.8896 283.973 25.4081C283.751 27.448 282.609 29.3552 281.013 30.6223L280.947 30.6745C281.316 28.8544 281.59 26.9358 282.131 25.1633C282.249 24.7777 282.512 24.0815 282.317 23.7144L282.18 23.769C281.348 25.0872 280.926 28.9693 280.419 30.6976C279.546 29.3485 279.621 27.1548 279.949 25.6356C280.275 24.123 281.004 22.4785 282.358 21.6275C282.509 21.5331 282.665 21.4483 282.823 21.3662Z" fill="#1A5E07"/>
<path d="M275.197 22.4743C275.812 21.5617 276.174 21.1539 277.235 20.8467C277.584 21.5837 277.89 22.3174 278.117 23.1021C278.245 23.5448 278.469 25.1999 278.66 25.4453C277.982 25.5823 277.511 25.9471 277.134 26.5213C276.924 26.8411 276.76 27.2056 276.608 27.5567C276.44 27.2458 276.168 26.8624 276.1 26.5182C276.167 26.4196 276.158 26.3969 276.15 26.2752C276.084 25.2561 275.604 24.5157 274.857 23.8577C274.897 23.3839 275.035 22.9188 275.197 22.4743Z" fill="#78270E"/>
<path d="M307.553 36.7833C306.905 36.7641 306.26 36.7997 305.615 36.8536C304.047 37.1697 302.165 37.7041 301.227 39.114C300.759 39.8177 300.55 40.6868 300.717 41.5219C300.839 42.1354 301.167 42.6961 301.698 43.0408C302.19 43.3595 302.895 43.505 303.47 43.3762C303.947 43.2692 304.353 42.9596 304.611 42.5473C304.903 42.079 304.988 41.485 304.862 40.9498C304.784 40.6196 304.559 40.3597 304.339 40.107C303.975 39.6874 303.628 39.2879 304.006 38.6198C304.314 38.0767 305.043 37.753 305.622 37.6194C306.517 37.4128 307.586 37.476 308.377 37.9777C309.151 38.4686 309.582 39.275 309.773 40.1525C310.009 41.241 310.064 42.829 309.43 43.7795C308.855 44.642 307.39 44.9807 305.746 45.3612C303.388 45.9065 300.66 46.5377 299.644 48.9198C299.253 49.8354 299.37 50.7754 299.458 51.4829C299.507 51.8763 299.547 52.1978 299.486 52.4034C299.497 52.4175 299.508 52.4315 299.518 52.4457C299.645 52.617 299.748 52.8018 299.851 52.9868C299.926 53.1217 300.002 53.2568 300.086 53.3869C300.793 54.4727 301.746 54.9446 303.005 55.1386C304.906 55.4315 307.013 55.0143 308.572 53.8593C308.945 53.5836 309.633 52.9638 309.706 52.4855C309.713 52.4939 309.719 52.5022 309.725 52.5106L309.733 52.5217C309.961 52.8633 310.042 53.205 310.118 53.5264C310.279 54.2023 310.418 54.7882 311.855 55.0937C312.933 55.3229 314.602 55.2068 315.558 54.5711C315.754 54.4412 315.956 54.2389 315.994 53.9984C315.999 53.9668 316 53.9433 316 53.9182C316 53.8983 315.999 53.8774 315.999 53.8505C315.983 53.8353 315.969 53.8219 315.957 53.8101C315.886 53.7405 315.873 53.7274 315.743 53.7308C315.554 53.7357 315.359 53.7704 315.165 53.8051C314.672 53.8933 314.179 53.9813 313.767 53.5784C313.155 52.9808 313.166 51.5974 313.174 50.71C313.174 50.6414 313.175 50.5758 313.175 50.5137C313.19 48.5948 313.194 46.6758 313.188 44.7568C313.181 40.4183 313.042 36.9465 307.553 36.7833ZM309.515 44.7935L309.752 44.7862L309.823 44.8853C309.891 45.4372 309.872 45.9921 309.852 46.547C309.843 46.801 309.834 47.055 309.834 47.3088C309.833 47.6434 309.844 47.9842 309.856 48.3271C309.883 49.1473 309.911 49.9805 309.775 50.7717C309.699 51.2187 309.535 51.6466 309.294 52.0311C308.765 52.8748 307.891 53.3995 306.929 53.6048C305.79 53.8479 304.896 53.5962 303.938 52.982C303.88 52.8785 303.824 52.7797 303.769 52.6846C303.209 51.702 302.875 51.1154 302.988 49.8038C303.201 47.3267 305.663 46.4064 307.683 45.6509L307.839 45.5927L307.947 45.552C308.023 45.5234 308.107 45.4934 308.196 45.4617L308.197 45.4612C308.621 45.3097 309.155 45.1188 309.446 44.8586C309.455 44.8501 309.465 44.8414 309.474 44.8327C309.488 44.8197 309.501 44.8065 309.515 44.7935Z" fill="#F2F2F2"/>
<path d="M307.869 45.5812C307.844 45.5905 307.819 45.5999 307.794 45.6093L307.838 45.5927L307.869 45.5812Z" fill="#EEEE60"/>
<path d="M250.935 27.0013C251.336 26.9573 251.771 26.9721 252.173 27.0118C253.723 27.1519 255.151 27.9064 256.14 29.1067C256.801 29.9222 257.186 30.911 257.065 31.9683C256.995 32.587 256.763 33.1851 256.261 33.5792C255.725 34.0004 254.956 34.2093 254.28 34.1258C253.71 34.0555 253.213 33.7543 252.866 33.2995C252.557 32.8946 252.422 32.2918 252.498 31.7903C252.664 30.6888 253.817 30.5874 254.55 30.0325C254.747 29.8834 254.829 29.7322 254.865 29.4906C254.82 29.2084 254.705 29.0243 254.515 28.8198C253.811 28.0608 252.738 27.7106 251.723 27.6853C250.848 27.6633 249.982 27.8965 249.347 28.5239C247.831 30.0219 248.247 34.7493 248.251 36.8C249.266 36.8096 255.078 36.63 255.602 37.0156C255.654 37.1863 255.631 37.2852 255.587 37.4558C255.189 37.7279 249.263 37.5838 248.245 37.5985L248.254 43.4641C248.777 43.4652 249.302 43.4719 249.825 43.45C253.504 43.2963 252.403 40.6401 253.287 39.7604C253.38 39.6682 253.428 39.6935 253.556 39.6935C253.812 40.0331 253.696 46.3836 253.696 47.3368C253.699 47.5605 253.683 47.7794 253.665 48.0021L253.506 48.131C253.302 48.1335 253.251 48.1653 253.091 48.0286C252.966 46.9982 252.671 45.6913 251.902 44.9523C250.949 44.0359 249.469 44.2281 248.253 44.2436C248.246 45.994 247.859 52.3718 248.981 53.5878C249.595 54.2534 250.72 54.1655 251.153 54.7072L251.133 54.8257C250.893 54.9588 250.598 54.9663 250.329 54.9774C249.555 55.0094 242.609 54.9925 242.227 54.8765C242.151 54.8534 242.18 54.849 242.101 54.8591C242.086 54.861 242.072 54.8655 242.057 54.8688L242.019 54.7774C242.123 54.3859 243.713 54.0763 244.168 53.6016C245.165 52.5609 244.804 46.0511 244.794 44.2568C244.094 44.2456 242.693 44.4903 242.167 44.0583C242.069 43.8674 242.042 43.8319 242.064 43.6218C242.452 43.2743 244.235 43.4404 244.788 43.4387C244.796 41.4826 244.795 39.5265 244.784 37.5703C243.933 37.5862 242.792 37.7361 242.02 37.3288L242 37.0851C242.531 36.6422 244.098 36.8049 244.789 36.8104C244.758 34.27 244.795 31.2446 246.48 29.1639C247.595 27.7867 249.227 27.1795 250.935 27.0013Z" fill="#F2F2F2"/>
<path d="M263.254 25.7144L263.349 25.7332C263.479 25.8852 263.479 25.9667 263.49 26.1604C263.598 28.2653 263.481 30.4381 263.48 32.5505L263.477 45.9147C263.477 47.519 263.246 51.8347 263.756 53.0939C264.323 54.4918 265.645 54.0504 266.072 54.7072L266.005 54.8821C265.619 55.0324 258.981 54.9513 257.911 54.9842C257.826 54.9841 257.843 54.9933 257.779 54.9683C257.617 54.9038 257.621 54.8397 257.553 54.6898C257.714 54.1384 258.894 54.3609 259.375 53.8255C259.792 53.3615 259.955 52.7445 260.031 52.1411C260.189 50.8904 260.141 49.6052 260.14 48.3466L260.135 43.0465L260.132 35.4571C260.133 33.7722 260.176 32.0773 260.095 30.3943C260.006 28.5434 260.069 28.1981 258.239 27.6319C258.054 27.5747 257.792 27.513 257.654 27.3685C257.568 27.2775 257.594 27.2466 257.592 27.1292L257.669 27.139C257.814 26.971 258.478 26.9348 258.71 26.9053C260.299 26.703 261.814 26.4468 263.254 25.7144Z" fill="#F2F2F2"/>
<path d="M290.24 36.6825L290.489 36.7139C290.509 36.7449 290.541 36.7898 290.555 36.8266C290.74 37.3098 290.639 40.5456 290.452 40.986C290.719 40.7536 290.834 40.4255 290.993 40.1169C291.554 39.026 292.248 38.0688 293.369 37.4962C294.533 36.9011 296.044 36.5911 297.307 37.0162C298.009 37.2521 298.575 37.7362 298.897 38.405C299.232 39.1027 299.298 39.9239 299.029 40.6545C298.809 41.2489 298.367 41.7791 297.785 42.045C297.233 42.2968 296.621 42.2751 296.063 42.0522C295.499 41.8268 295.021 41.4239 294.791 40.8521C294.347 39.7525 294.944 39.3549 295.287 38.4508C295.354 38.2758 295.341 38.2218 295.265 38.0578C295.029 37.9443 294.781 37.9928 294.538 38.0514C291.431 38.7963 290.702 42.4678 290.639 45.2076C290.624 45.8825 290.649 48.2481 290.649 48.2481C290.649 48.2481 290.623 50.5219 290.649 51.1751C290.711 52.7621 290.82 53.8382 292.517 54.3474C292.765 54.4218 293.081 54.4681 293.27 54.6543C293.321 54.7036 293.296 54.7934 293.295 54.861C293.276 54.8755 293.257 54.8909 293.238 54.9045C293.133 54.9768 285.229 55.0042 284.79 54.8944L284.737 54.7123C284.92 54.0224 286.248 54.3678 286.76 53.7161C287.015 53.3917 287.114 52.9689 287.171 52.5691C287.483 50.4234 287.333 48.1048 287.328 45.9325C287.324 44.133 287.439 42.216 287.194 40.438C286.854 37.9639 285.953 39.1255 284.93 38.3462C284.841 38.1509 284.855 38.1301 284.904 37.9178C286.646 37.5879 288.581 37.5731 290.183 36.7137L290.24 36.6825Z" fill="#F2F2F2"/>
</g>
</g>
<defs>
<linearGradient id="paint0_linear_4179_8845" x1="0" y1="0" x2="376" y2="-3.49808e-06" gradientUnits="userSpaceOnUse">
<stop stop-color="white"/>
<stop offset="0.5" stop-color="white"/>
<stop offset="0.5001" stop-color="#030C01"/>
<stop offset="1" stop-color="#030C01"/>
</linearGradient>
<clipPath id="clip0_4179_8845">
<rect width="84" height="36" fill="white" transform="translate(49.5 19.5)"/>
</clipPath>
<clipPath id="clip1_4179_8845">
<rect width="74" height="35.6389" fill="white" transform="translate(54 19.7125)"/>
</clipPath>
<clipPath id="clip2_4179_8845">
<rect width="84" height="36" fill="white" transform="translate(237.5 19.5)"/>
</clipPath>
<clipPath id="clip3_4179_8845">
<rect width="74" height="35.6389" fill="white" transform="translate(242 19.7125)"/>
</clipPath>
</defs>
</svg>
