<?xml version="1.0" encoding="UTF-8"?>
<svg xmlns="http://www.w3.org/2000/svg" xmlns:xlink="http://www.w3.org/1999/xlink" width="0" height="0">
<symbol id="facebook"  viewBox="0 0 24 24" fill="none">
<path d="M22 12.3038C22 6.74719 17.5229 2.24268 12 2.24268C6.47715 2.24268 2 6.74719 2 12.3038C2 17.3255 5.65684 21.4879 10.4375 22.2427V15.2121H7.89844V12.3038H10.4375V10.0872C10.4375 7.56564 11.9305 6.1728 14.2146 6.1728C15.3088 6.1728 16.4531 6.36931 16.4531 6.36931V8.84529H15.1922C13.95 8.84529 13.5625 9.6209 13.5625 10.4166V12.3038H16.3359L15.8926 15.2121H13.5625V22.2427C18.3432 21.4879 22 17.3257 22 12.3038Z" fill="#030C01"/>
</symbol>

<symbol id="favicon" width="32" height="32" viewBox="0 0 32 32" fill="none">
<rect width="32" height="32" fill="white"/>
<path d="M9.57707 8.29633C9.92898 7.76472 10.3192 7.31449 10.8543 6.95787C11.5963 6.46352 12.4802 6.21481 13.3656 6.41082C14.0794 6.56889 14.66 7.04897 15.051 7.64793C15.4532 8.49538 15.8059 9.33905 16.0671 10.2413C16.1204 10.4248 16.1881 10.7897 16.2632 11.1945C16.3963 11.912 16.5527 12.7552 16.6934 12.9356C16.8212 14.1776 15.9003 15.9999 15.1281 16.9489C14.9432 17.179 14.7402 17.3943 14.5213 17.5929C15.8698 19.7984 16.6334 22.3772 16.8774 24.947C17.4732 22.9508 18.0871 20.96 18.72 18.975C17.7143 17.4237 17.8011 14.9012 18.1786 13.1545C18.5542 11.4151 19.3949 9.52421 20.9554 8.5457C21.1289 8.43718 21.3091 8.33971 21.4912 8.24526C22.5931 9.6196 23.0069 11.1469 22.8162 12.8929C22.5607 15.2384 21.2442 17.4315 19.4055 18.8884L19.3292 18.9485C19.1832 19.4679 19.0151 19.9855 18.8471 20.5034C18.6166 21.2132 18.386 21.9234 18.2119 22.6395C18.222 22.6355 18.2322 22.6316 18.2423 22.6277C18.2612 22.6205 18.2801 22.6132 18.2987 22.6049C18.5072 22.5117 18.8802 21.9329 19.1909 21.4508C19.3503 21.2034 19.4934 20.9814 19.5894 20.8635C21.208 18.8743 23.4073 17.6862 26.0125 17.7424C26.5025 17.7528 27.0897 17.7713 27.5558 17.9085C27.7808 17.9745 27.8188 18.0099 27.9409 18.2051C27.8665 19.584 26.0506 21.7633 25.0087 22.6985C22.861 24.6262 20.1928 25.7353 17.4951 26.6563C17.3853 26.6319 17.3242 26.6183 17.2005 26.5908L16.2563 26.3811L15.7706 26.2732L15.3236 26.1379L15.3541 26.0584C15.2984 25.8413 14.9776 25.7805 14.7526 25.7378L14.7497 25.7373C14.7292 25.7334 14.7094 25.7297 14.6908 25.726C14.4274 25.6735 14.161 25.622 13.8928 25.5702L13.8885 25.5694C10.952 25.0021 7.79606 24.3925 5.85527 21.9138C5.52363 21.4903 4.94034 20.6518 5.00823 20.1199C5.45772 19.7363 6.78393 19.6026 7.35943 19.5703C10.2711 19.4069 13.0205 20.9562 14.8298 23.1465C15.0099 23.3642 15.1737 23.6326 15.3384 23.9026C15.5705 24.2828 15.8044 24.666 16.0881 24.9148L16.2006 24.706C15.8851 22.2386 15.3112 20.0289 13.9508 17.9249C12.9967 18.2069 12.1118 18.2882 11.1205 18.1068C10.4872 17.9908 9.46532 17.6723 9.08282 17.127C8.97171 16.952 8.33044 16.6354 7.70364 16.326C7.21759 16.086 6.74025 15.8504 6.52567 15.6884C5.61905 15.004 5.1707 14.095 5.0075 12.9855L5.00365 12.892C4.96265 11.6559 5.26195 10.5521 6.13967 9.64271C7.06063 8.68854 8.28046 8.31831 9.57707 8.29633Z" fill="#353C3A"/>
<path d="M9.5771 8.29633C9.92904 7.76471 10.3192 7.31449 10.8544 6.95785C11.5963 6.46351 12.4802 6.21481 13.3656 6.41082C14.0794 6.56888 14.6601 7.04896 15.051 7.64792C13.8281 8.00113 13.411 8.47009 12.7019 9.51946C12.5154 10.0305 12.3557 10.5653 12.3105 11.1101C13.1709 11.8667 13.7238 12.7181 13.8001 13.8898C13.8093 14.0298 13.8197 14.0559 13.743 14.1693L13.4304 14.0771C13.1517 14.2801 13.0819 14.6261 13.03 14.9504C12.9373 15.5296 12.9237 16.1541 12.9351 16.7403C12.2172 16.5306 11.5852 16.4579 10.8381 16.4926C10.2232 16.6444 9.64306 16.8214 9.08283 17.1269C8.8856 16.8162 7.01693 16.0592 6.52572 15.6884C5.61907 15.004 5.17075 14.095 5.00756 12.9855L5.00365 12.892C4.96266 11.6558 5.26198 10.5521 6.13974 9.64271C7.06069 8.68854 8.28048 8.3183 9.5771 8.29633Z" fill="#EAE9E8"/>
<path d="M9.5771 8.29633C9.92904 7.76471 10.3192 7.31449 10.8544 6.95785C11.5963 6.46351 12.4802 6.21481 13.3656 6.41082C14.0794 6.56888 14.6601 7.04896 15.051 7.64792C13.8281 8.00113 13.411 8.47009 12.7019 9.51946C12.5154 10.0305 12.3557 10.5653 12.3105 11.1101L11.4516 10.7644C11.1089 10.7736 10.4338 10.7049 10.1403 10.8527L9.76174 11.0363C9.6158 11.1687 9.44535 11.3683 9.27758 11.4646L8.96044 12.011L8.7408 12.0245C7.71986 12.0062 6.75593 12.1173 5.82154 12.5571C5.5574 12.6815 5.28019 12.9029 5.00756 12.9855L5.00365 12.892C4.96266 11.6558 5.26198 10.5521 6.13974 9.64271C7.06069 8.68854 8.28048 8.3183 9.5771 8.29633Z" fill="#DB8778"/>
<path d="M11.4521 10.7645C11.6085 10.3466 11.7402 9.83273 12.0631 9.51394C12.3545 9.39639 12.4131 9.43491 12.7024 9.51946C12.516 10.0305 12.3562 10.5653 12.311 11.1102L11.4521 10.7645Z" fill="#353C3A"/>
<path d="M9.76296 11.0364C9.45439 10.8247 9.0995 10.6086 8.84975 10.3264C8.68779 10.1435 8.60294 9.94449 8.61429 9.70064L8.77663 9.62076C9.46002 9.77026 9.75219 10.3279 10.1415 10.8527L9.76296 11.0364Z" fill="#353C3A"/>
<path d="M8.7415 12.0244C8.6129 12.0085 8.46801 11.9971 8.34323 11.9604C8.13475 11.8991 8.10119 11.8129 8.02197 11.6342C8.11091 11.5098 8.13217 11.4755 8.27335 11.4136C8.61462 11.264 8.94397 11.3398 9.27827 11.4646L8.96113 12.0109L8.7415 12.0244Z" fill="#353C3A"/>
<path d="M10.4439 8.85068C10.5592 8.90042 10.6724 8.95976 10.7453 9.06647C11.0378 9.49491 10.9888 10.3502 10.9357 10.8466L10.5292 10.7262C10.4735 10.6653 10.4304 10.6169 10.396 10.5409C10.1565 10.011 10.2554 9.37802 10.4439 8.85068Z" fill="#353C3A"/>
<path d="M8.74106 12.0245L8.96069 12.011C8.69302 13.021 8.54869 14.0426 9.10911 14.9917C9.5091 15.6691 10.158 16.1251 10.8383 16.4926C10.2235 16.6444 9.64332 16.8214 9.08309 17.1269C8.88586 16.8162 7.01719 16.0592 6.52597 15.6884C5.61933 15.0039 5.17101 14.0949 5.00781 12.9855C5.28044 12.9029 5.55765 12.6815 5.8218 12.5571C6.75618 12.1173 7.72012 12.0062 8.74106 12.0245Z" fill="#EBB19F"/>
<path d="M18.2119 22.6395C18.2405 22.628 18.2701 22.6177 18.2987 22.6049C18.6142 22.4638 19.3063 21.2111 19.5894 20.8635C21.208 18.8743 23.4072 17.6862 26.0125 17.7424C26.5024 17.7528 27.0896 17.7713 27.5558 17.9085C27.7808 17.9745 27.8189 18.0099 27.9409 18.2051C27.8665 19.584 26.0506 21.7633 25.0087 22.6985C22.861 24.6262 20.1928 25.7353 17.4951 26.6563C18.8964 24.8859 20.536 23.1487 22.29 21.7255C22.9001 21.2304 25.4767 19.6571 25.6636 19.3334C25.5806 19.2795 25.5692 19.2452 25.4662 19.2601C23.1365 19.5982 18.6485 24.3734 17.2549 26.1789C17.4312 24.9496 17.7344 23.7886 18.2119 22.6395Z" fill="#97A898"/>
<path d="M15.3238 26.1379L15.3543 26.0584C15.2933 25.8205 14.9139 25.7703 14.691 25.726C11.542 25.0983 7.97453 24.6201 5.85543 21.9138C5.5238 21.4903 4.9405 20.6518 5.00837 20.1199C5.45793 19.7363 6.7841 19.6026 7.35958 19.5703C10.2713 19.4068 13.0207 20.9562 14.83 23.1465C15.2637 23.6709 15.6031 24.4892 16.0883 24.9148L16.2008 24.706C16.2503 24.9998 16.2704 25.231 16.2275 25.5293C15.8776 25.4175 15.3247 24.7008 14.9958 24.441C13.14 22.9733 9.88486 20.9772 7.42869 21.0476L7.36521 21.134C7.97701 21.6093 9.01081 21.7982 9.74053 22.0507C11.9419 22.8126 14.3964 24.2572 15.7994 26.1572L15.7241 26.2416C15.6021 26.2139 15.4305 26.1981 15.3238 26.1379Z" fill="#97A898"/>
<path d="M21.491 8.24527C22.593 9.6196 23.0067 11.1469 22.8161 12.8929C22.5606 15.2384 21.2442 17.4315 19.4053 18.8884L19.3291 18.9485C19.7542 16.8556 20.0697 14.6495 20.6932 12.6114C20.8295 12.168 21.1326 11.3674 20.9077 10.9453L20.7504 11.0081C19.7904 12.5239 19.3043 16.9877 18.7199 18.975C17.7142 17.4237 17.801 14.9012 18.1785 13.1545C18.5541 11.4152 19.3948 9.52422 20.9553 8.5457C21.1288 8.43719 21.309 8.33971 21.491 8.24527Z" fill="#97A898"/>
<path d="M12.702 9.51945C13.4111 8.47009 13.8281 8.00113 15.0511 7.64792C15.4533 8.49538 15.806 9.33904 16.0672 10.2413C16.215 10.7503 16.4733 12.6534 16.6935 12.9356C15.9119 13.0931 15.3695 13.5126 14.9348 14.1728C14.6928 14.5406 14.5034 14.9597 14.3284 15.3633C14.1348 15.006 13.8215 14.5651 13.7431 14.1693C13.8197 14.0559 13.8094 14.0298 13.8002 13.8898C13.7238 12.7181 13.171 11.8667 12.3105 11.1101C12.3557 10.5653 12.5155 10.0305 12.702 9.51945Z" fill="#EBB19F"/>
</symbol>

<symbol id="flower"  viewBox="0 0 96 85" fill="none">
<path d="M19.1547 8.17091C20.6273 5.9463 22.2602 4.06228 24.4993 2.56996C27.6043 0.501308 31.303 -0.539436 35.0082 0.280782C37.9951 0.942238 40.4249 2.95119 42.0608 5.45761C43.7442 9.00385 45.2201 12.5343 46.3129 16.3098C46.5361 17.0779 46.8192 18.6047 47.1333 20.2984C47.6903 23.3009 48.3449 26.8295 48.9337 27.5843C49.4683 32.7817 45.6148 40.4072 42.3837 44.3786C41.6099 45.3412 40.7603 46.2422 39.8444 47.0732C45.4874 56.3025 48.6826 67.0938 49.7036 77.8473C52.1967 69.4939 54.7659 61.1633 57.4143 52.8569C53.2059 46.3652 53.569 35.8099 55.1487 28.5004C56.7204 21.2219 60.2386 13.3091 66.7685 9.2144C67.4947 8.76032 68.2485 8.35244 69.0105 7.9572C73.6217 13.7083 75.3531 20.0993 74.5551 27.4055C73.4861 37.2206 67.9772 46.3979 60.2826 52.4943L59.9634 52.7458C59.3525 54.9196 58.6492 57.0856 57.9459 59.2527C56.9816 62.2227 56.0168 65.1948 55.2882 68.1914C55.3302 68.1745 55.3728 68.1582 55.4154 68.1419C55.4944 68.1118 55.5734 68.0814 55.6513 68.0465C56.5237 67.6565 58.0845 65.2347 59.3847 63.2172C60.0518 62.1818 60.6506 61.2529 61.0523 60.7597C67.8257 52.4354 77.0285 47.4636 87.9304 47.6988C89.9807 47.7425 92.4379 47.8198 94.3886 48.394C95.33 48.6702 95.4893 48.8183 96.0001 49.6353C95.6888 55.4055 88.0897 64.5249 83.73 68.4381C74.7428 76.5049 63.5772 81.1461 52.2886 85C51.829 84.8979 51.5734 84.8411 51.0556 84.7261L47.1048 83.8485L45.0723 83.397L43.2017 82.8307L43.3291 82.498C43.0962 81.5897 41.7536 81.3353 40.8123 81.1567L40.8002 81.1544C40.7141 81.1382 40.6317 81.1225 40.5538 81.1071C39.4513 80.8874 38.3364 80.672 37.2142 80.4551L37.1962 80.4517C24.908 78.078 11.7019 75.5269 3.58043 65.1545C2.19265 63.3823 -0.248179 59.8739 0.0359185 57.648C1.91685 56.0426 7.46652 55.483 9.87476 55.3481C22.0589 54.664 33.5641 61.1474 41.1352 70.313C41.8887 71.2241 42.5743 72.3473 43.2637 73.4769C44.2346 75.0678 45.2135 76.6713 46.4009 77.7128L46.8716 76.8388C45.5513 66.514 43.1497 57.2672 37.4572 48.4625C33.4646 49.6429 29.7616 49.9831 25.6132 49.2238C22.9633 48.7383 18.687 47.4055 17.0864 45.1236C16.6215 44.3913 13.938 43.0666 11.3151 41.7719C9.28118 40.7677 7.28371 39.7816 6.38578 39.1039C2.59195 36.2397 0.715777 32.4359 0.0328676 27.7932L0.016759 27.4019C-0.154822 22.2292 1.09762 17.6103 4.77052 13.805C8.62439 9.81214 13.7289 8.26286 19.1547 8.17091Z" fill="#353C3A"/>
<path d="M19.1533 8.17091C20.6261 5.94627 22.2588 4.06229 24.4982 2.56991C27.6029 0.501267 31.3019 -0.539427 35.0068 0.280787C37.9938 0.942211 40.4235 2.95115 42.0594 5.45756C36.9419 6.93562 35.1967 8.89801 32.2293 13.2892C31.449 15.4279 30.7805 17.6657 30.5914 19.9456C34.1919 23.1115 36.5055 26.6741 36.825 31.5774C36.8633 32.1633 36.9068 32.2723 36.5861 32.7471L35.2777 32.361C34.1117 33.2107 33.8197 34.6585 33.6023 36.0156C33.2146 38.4392 33.1575 41.0527 33.2054 43.5054C30.2013 42.6282 27.5566 42.3238 24.43 42.4691C21.8571 43.1042 19.4294 43.8448 17.085 45.1235C16.2597 43.8233 8.44006 40.6555 6.38452 39.1038C2.59058 36.2397 0.714539 32.4359 0.031621 27.7932L0.0152842 27.402C-0.156243 22.2292 1.09629 17.6103 4.76937 13.805C8.62315 9.81214 13.7275 8.26284 19.1533 8.17091Z" fill="#EAE9E8"/>
<path d="M19.1533 8.17091C20.6261 5.94627 22.2588 4.06229 24.4982 2.56991C27.6029 0.501267 31.3019 -0.539427 35.0068 0.280787C37.9938 0.942211 40.4235 2.95115 42.0594 5.45756C36.9419 6.93562 35.1967 8.89801 32.2293 13.2892C31.449 15.4279 30.7805 17.6657 30.5914 19.9456L26.9973 18.499C25.5633 18.5372 22.7382 18.2499 21.51 18.8683L19.926 19.6368C19.3153 20.1908 18.602 21.0257 17.9 21.4288L16.5729 23.7152L15.6538 23.7717C11.3816 23.6953 7.34786 24.1601 3.43784 26.0007C2.33248 26.5213 1.17248 27.4477 0.031621 27.7932L0.0152842 27.402C-0.156243 22.2292 1.09629 17.6103 4.76937 13.805C8.62315 9.81214 13.7275 8.26284 19.1533 8.17091Z" fill="#DB8778"/>
<path d="M26.9985 18.499C27.6527 16.7503 28.204 14.6001 29.5551 13.2661C30.7745 12.7742 31.0198 12.9354 32.2305 13.2892C31.4503 15.4278 30.7817 17.6656 30.5926 19.9456L26.9985 18.499Z" fill="#353C3A"/>
<path d="M19.9262 19.6369C18.635 18.751 17.1499 17.8468 16.1047 16.6661C15.427 15.9008 15.072 15.0678 15.1194 14.0474L15.7988 13.7131C18.6585 14.3387 19.8811 16.6724 21.5102 18.8684L19.9262 19.6369Z" fill="#353C3A"/>
<path d="M15.653 23.7716C15.1149 23.7052 14.5086 23.6574 13.9864 23.5038C13.114 23.2471 12.9736 22.8866 12.6421 22.1388C13.0143 21.6182 13.1032 21.4746 13.694 21.2155C15.1221 20.5895 16.5003 20.9066 17.8992 21.4288L16.5721 23.7151L15.653 23.7716Z" fill="#353C3A"/>
<path d="M22.7792 10.4907C23.2619 10.6989 23.7354 10.9472 24.0405 11.3937C25.2643 13.1866 25.0593 16.7655 24.8371 18.8429L23.1362 18.3391C22.9032 18.0844 22.7225 17.8818 22.5789 17.5638C21.5765 15.3463 21.9906 12.6975 22.7792 10.4907Z" fill="#353C3A"/>
<path d="M15.6554 23.7716L16.5744 23.7151C15.4543 27.9419 14.8504 32.2169 17.1955 36.1882C18.8693 39.0229 21.5846 40.9312 24.4316 42.469C21.8587 43.1041 19.431 43.8447 17.0866 45.1234C16.2613 43.8232 8.44164 40.6554 6.38611 39.1037C2.59216 36.2396 0.716121 32.4358 0.0332031 27.7931C1.17406 27.4476 2.33406 26.5212 3.43942 26.0006C7.34944 24.16 11.3831 23.6952 15.6554 23.7716Z" fill="#EBB19F"/>
<path d="M55.2881 68.1913C55.4078 68.1431 55.5315 68.1001 55.6511 68.0464C56.9715 67.4562 59.8675 62.2138 61.0523 60.7596C67.8256 52.4353 77.0283 47.4635 87.9302 47.6987C89.9806 47.7424 92.4378 47.8196 94.3884 48.3939C95.3298 48.6701 95.4894 48.8181 96 49.6352C95.6888 55.4053 88.0898 64.5248 83.7298 68.438C74.7425 76.5048 63.5773 81.146 52.2884 84.9999C58.1522 77.5917 65.0133 70.322 72.3531 64.3664C74.9061 62.2946 85.6884 55.711 86.4702 54.3567C86.1232 54.131 86.0753 53.9874 85.6445 54.0499C75.8953 55.4646 57.1151 75.447 51.2832 83.0021C52.0212 77.8579 53.2896 72.9999 55.2881 68.1913Z" fill="#97A898"/>
<path d="M43.2013 82.8306L43.329 82.4979C43.0737 81.5026 41.486 81.2924 40.5534 81.107C27.3761 78.4804 12.4477 76.4794 3.58009 65.1544C2.19232 63.3822 -0.248553 59.8738 0.0354639 57.6479C1.91668 56.0425 7.46618 55.483 9.87434 55.3481C22.0588 54.6639 33.5639 61.1473 41.135 70.3129C42.95 72.5073 44.3701 75.9318 46.4005 77.7127L46.8712 76.8388C47.0786 78.0681 47.1624 79.0355 46.9829 80.284C45.5189 79.816 43.2053 76.8169 41.8291 75.73C34.0633 69.5882 20.4416 61.2352 10.1636 61.5297L9.89789 61.8915C12.458 63.8805 16.7841 64.6709 19.8377 65.7275C29.0495 68.9156 39.3208 74.9608 45.1918 82.9114L44.8767 83.2648C44.3661 83.149 43.6481 83.0825 43.2013 82.8306Z" fill="#97A898"/>
<path d="M69.0084 7.95703C73.6197 13.7081 75.351 20.0991 74.5532 27.4054C73.4841 37.2205 67.9753 46.3976 60.2805 52.4941L59.9614 52.7456C61.7405 43.9879 63.0608 34.7562 65.6696 26.2274C66.2401 24.372 67.5086 21.0219 66.5672 19.2558L65.909 19.5184C61.892 25.8612 59.8577 44.5407 57.4124 52.8567C53.204 46.365 53.567 35.8097 55.1466 28.5002C56.7183 21.2217 60.2366 13.3089 66.7666 9.21421C67.4926 8.76013 68.2465 8.35221 69.0084 7.95703Z" fill="#97A898"/>
<path d="M32.2292 13.2892C35.1966 8.89797 36.9418 6.93558 42.0593 5.45752C43.7427 9.00382 45.2186 12.5342 46.3116 16.3097C46.9299 18.4397 48.0109 26.4034 48.9323 27.5842C45.6614 28.2436 43.3916 29.9991 41.5726 32.7618C40.5602 34.3007 39.7676 36.0546 39.0352 37.7435C38.2251 36.248 36.9139 34.403 36.586 32.747C36.9067 32.2723 36.8632 32.1632 36.8249 31.5774C36.5054 26.674 34.1918 23.1114 30.5913 19.9456C30.7804 17.6656 31.4489 15.4278 32.2292 13.2892Z" fill="#EBB19F"/>
</symbol>

<symbol id="instagram"  viewBox="0 0 24 24" fill="none">
<path d="M11.9988 4.62091C14.4032 4.62091 14.6878 4.63159 15.6332 4.67378C16.5123 4.71258 16.9864 4.85994 17.303 4.98311C17.7215 5.14509 18.0235 5.34194 18.3362 5.65465C18.6528 5.97129 18.8458 6.26994 19.0111 6.68838C19.1343 7.00503 19.2816 7.48253 19.3204 8.35822C19.3626 9.3076 19.3733 9.59218 19.3733 11.9932C19.3733 14.3942 19.3626 14.6821 19.3204 15.6281C19.2816 16.5072 19.1343 16.9813 19.0111 17.298C18.8491 17.7164 18.6528 18.0184 18.3396 18.3311C18.0229 18.6478 17.7243 18.8407 17.3064 19.0061C16.9898 19.1292 16.5117 19.2766 15.6366 19.3154C14.6872 19.3576 14.4026 19.3683 12.0016 19.3683C9.60062 19.3683 9.31266 19.3576 8.36666 19.3154C7.48759 19.2766 7.01346 19.1292 6.69682 19.0061C6.27838 18.8441 5.97635 18.6478 5.66308 18.3345C5.34644 18.0179 5.15353 17.7192 4.98817 17.3013C4.865 16.9847 4.71765 16.5066 4.67884 15.6315C4.63666 14.6821 4.62597 14.3975 4.62597 11.9965C4.62597 9.59556 4.63666 9.3076 4.67884 8.3616C4.71765 7.48253 4.865 7.0084 4.98817 6.69176C5.15015 6.27331 5.347 5.97129 5.65971 5.65802C5.97635 5.34137 6.275 5.14846 6.69344 4.98311C7.01009 4.85994 7.48759 4.71258 8.36328 4.67378C9.30872 4.63159 9.59387 4.62091 11.9982 4.62091H11.9988ZM11.9988 3.00056C9.55563 3.00056 9.25023 3.01125 8.29017 3.05343C7.33405 3.09561 6.67657 3.25028 6.1074 3.47187C5.51348 3.70359 5.01067 4.00955 4.5118 4.51236C4.00899 5.01179 3.70303 5.51404 3.47131 6.10459C3.24972 6.6777 3.09505 7.33123 3.05287 8.28736C3.01069 9.25079 3 9.55619 3 11.9994C3 14.4425 3.01069 14.7479 3.05287 15.708C3.09505 16.6641 3.24972 17.3216 3.47131 17.8908C3.70359 18.4847 4.00899 18.9875 4.5118 19.4864C5.01067 19.9852 5.51348 20.2951 6.10402 20.5235C6.67713 20.7451 7.33067 20.8997 8.28679 20.9419C9.24629 20.9841 9.55225 20.9948 11.9954 20.9948C14.4386 20.9948 14.7446 20.9841 15.7041 20.9419C16.6602 20.8997 17.3177 20.7451 17.8868 20.5235C18.4774 20.2951 18.9802 19.9858 19.4791 19.4864C19.9779 18.9869 20.2878 18.4847 20.5162 17.8941C20.7378 17.321 20.8924 16.6675 20.9346 15.7114C20.9768 14.7519 20.9875 14.4459 20.9875 12.0027C20.9875 9.55956 20.9768 9.25417 20.9346 8.29411C20.8924 7.33798 20.7378 6.68051 20.5162 6.11133C20.2946 5.51348 19.9886 5.01123 19.4864 4.5118C18.9875 4.01293 18.4847 3.70303 17.8941 3.47469C17.321 3.25309 16.6675 3.09842 15.7114 3.05624C14.7485 3.01069 14.4425 3 11.9994 3L11.9988 3.00056Z" fill="black"/>
<path d="M11.9985 7.37671C9.44683 7.37671 7.37598 9.447 7.37598 11.9993C7.37598 14.5516 9.44626 16.6219 11.9985 16.6219C14.5508 16.6219 16.6211 14.5516 16.6211 11.9993C16.6211 9.44756 14.5508 7.37671 11.9985 7.37671ZM11.9985 14.9976C10.3428 14.9976 9.00026 13.6551 9.00026 11.9993C9.00026 10.3435 10.3428 9.00099 11.9985 9.00099C13.6543 9.00099 14.9968 10.3435 14.9968 11.9993C14.9968 13.6551 13.6543 14.9976 11.9985 14.9976Z" fill="black"/>
<path d="M17.8822 7.19404C17.8822 7.79021 17.3991 8.27333 16.8029 8.27333C16.2068 8.27333 15.7236 7.79021 15.7236 7.19404C15.7236 6.59787 16.2068 6.11475 16.8029 6.11475C17.3991 6.11475 17.8822 6.59787 17.8822 7.19404Z" fill="black"/>
</symbol>

<symbol id="left-arrow" width="24" height="24" viewBox="0 0 24 24" fill="none">
<path d="M12.7069 17.293L8.41394 13H17.9999V11H8.41394L12.7069 6.70697L11.2929 5.29297L4.58594 12L11.2929 18.707L12.7069 17.293Z" fill="#030C01"/>
</symbol>

<symbol id="logo" viewBox="0 0 112 48" fill="none">
<g clip-path="url(#clip0_8209_115731)">
<path d="M48.1258 0.995428C47.5068 1.40897 47.0553 1.93103 46.6482 2.54749C45.1482 2.57296 43.737 3.00228 42.6716 4.10871C41.6562 5.16319 41.31 6.44309 41.3574 7.87649L41.3619 7.9849C41.5507 9.27141 42.0693 10.3255 43.1182 11.1191C43.3664 11.3069 43.9186 11.5802 44.4809 11.8584C45.206 12.2172 45.9479 12.5843 46.0764 12.7872C46.5189 13.4195 47.7011 13.7889 48.4337 13.9234C49.5806 14.1338 50.6043 14.0395 51.7081 13.7124C53.2818 16.1523 53.9457 18.7146 54.3107 21.5757L54.1806 21.8178C53.8523 21.5292 53.5817 21.0849 53.3133 20.644C53.1228 20.331 52.9332 20.0198 52.7249 19.7673C50.6318 17.2275 47.4511 15.4309 44.0827 15.6205C43.4169 15.6579 41.8827 15.8129 41.3627 16.2578C41.2842 16.8746 41.9589 17.8468 42.3426 18.3379C44.5878 21.2121 48.2388 21.919 51.6359 22.5768C51.9479 22.6372 52.2577 22.6972 52.5642 22.7584C52.5867 22.7629 52.6106 22.7674 52.6356 22.7722C52.8959 22.8216 53.267 22.8921 53.3314 23.1438L53.2962 23.236C49.8277 22.6523 46.206 23.0732 43.2822 25.1692C40.783 26.9608 39.3482 29.7888 38.8638 32.7807C38.2887 36.3321 38.8889 40.3064 41.0266 43.2631C42.7549 45.6536 45.3076 47.1703 48.2136 47.6297C51.4253 48.1373 54.9151 47.5405 57.5694 45.597C60.0882 43.7527 61.5142 40.9336 61.9762 37.8913C62.532 34.2298 62.0214 30.3373 59.7794 27.3065C58.8112 25.9976 57.6687 25.1071 56.277 24.2866C56.2468 24.2689 56.2164 24.252 56.1863 24.2353C56.0153 24.1404 55.8552 24.0515 55.8083 23.8372C58.9291 22.7692 62.0159 21.4831 64.5005 19.2478C65.7058 18.1634 67.8066 15.6364 67.8927 14.0374C67.7515 13.811 67.7074 13.77 67.4472 13.6935C66.9079 13.5343 66.2286 13.5129 65.6617 13.5008C62.6478 13.4356 60.1037 14.8134 58.2311 17.1201C58.12 17.2567 57.9545 17.5141 57.7701 17.801C57.4106 18.3601 56.9791 19.0312 56.738 19.1393C56.7164 19.1489 56.6946 19.1573 56.6727 19.1657C56.661 19.1702 56.6492 19.1747 56.6376 19.1794C56.839 18.349 57.1057 17.5255 57.3723 16.7024C57.5667 16.1019 57.7612 15.5017 57.9301 14.8994L58.0183 14.8297C60.1455 13.1403 61.6685 10.5973 61.9641 7.87748C62.1846 5.85288 61.706 4.08191 60.4312 2.48827C60.2205 2.59778 60.0121 2.71081 59.8114 2.83664C58.0061 3.9713 57.0335 6.16397 56.599 8.18086C56.1623 10.2064 56.0619 13.1313 57.2254 14.9301C56.4932 17.2319 55.7829 19.5404 55.0937 21.8551C54.8114 18.8753 53.9281 15.8849 52.368 13.3275C52.6212 13.0972 52.8561 12.8475 53.07 12.5808C53.9633 11.4803 55.0286 9.36724 54.8808 7.927C54.718 7.7178 54.5371 6.74021 54.3831 5.90807C54.2963 5.43872 54.218 5.01565 54.1563 4.8028C53.8542 3.75659 53.4461 2.7783 52.9808 1.79561C52.5285 1.10107 51.8568 0.544384 51.031 0.3611C50.0067 0.133815 48.9842 0.422198 48.1258 0.995428ZM49.2024 23.9902C50.6493 23.8474 51.9846 23.9911 53.2432 24.7831C55.2746 26.0618 56.2583 28.4551 56.7688 30.7029C57.6445 34.5642 57.64 40.8388 55.4213 44.2859C54.518 45.6891 53.3535 46.3726 51.7572 46.7189C50.2681 46.879 48.8494 46.731 47.5729 45.8887C45.476 44.5049 44.5552 41.8757 44.07 39.5204C43.2573 35.5756 43.1464 29.9022 45.4847 26.4073C46.4205 25.0085 47.5852 24.3229 49.2024 23.9902Z" fill="#353C3A"/>
<path d="M46.6476 2.54749C47.0548 1.93103 47.5061 1.40897 48.1252 0.995427C48.9835 0.422198 50.0061 0.133817 51.0304 0.361102C51.8562 0.544385 52.5279 1.10107 52.9801 1.79561C51.5654 2.20518 51.0829 2.74897 50.2625 3.96579C50.0468 4.55843 49.862 5.17852 49.8097 5.81031C50.8051 6.68758 51.4447 7.67479 51.5331 9.03354C51.5437 9.19587 51.5557 9.22608 51.467 9.35765L51.1053 9.25068C50.783 9.48612 50.7022 9.88732 50.6421 10.2634C50.5349 10.935 50.5192 11.6592 50.5324 12.3388C49.7019 12.0958 48.9707 12.0114 48.1064 12.0516C47.3951 12.2277 46.7239 12.4329 46.0758 12.7872C45.8476 12.4269 43.6859 11.5491 43.1176 11.1191C42.0687 10.3255 41.5501 9.27141 41.3613 7.9849L41.3568 7.87649C41.3093 6.44309 41.6556 5.16319 42.6711 4.10871C43.7365 3.00228 45.1476 2.57296 46.6476 2.54749Z" fill="#EAE9E8"/>
<path d="M46.6476 2.54749C47.0548 1.93103 47.5061 1.40897 48.1252 0.995427C48.9835 0.422198 50.0061 0.133817 51.0304 0.361102C51.8562 0.544385 52.5279 1.10107 52.9801 1.79561C51.5654 2.20518 51.0829 2.74897 50.2625 3.96579C50.0468 4.55842 49.862 5.17852 49.8097 5.81031L48.8161 5.40944C48.4197 5.42003 47.6387 5.34041 47.2991 5.51178L46.8612 5.72473C46.6924 5.87824 46.4952 6.1096 46.3011 6.22132L45.9342 6.85487L45.6801 6.87053C44.499 6.84936 43.3839 6.97816 42.303 7.4882C41.9974 7.63244 41.6767 7.88917 41.3613 7.9849L41.3568 7.87649C41.3093 6.44309 41.6556 5.16319 42.6711 4.10871C43.7365 3.00228 45.1476 2.57296 46.6476 2.54749Z" fill="#DB8778"/>
<path d="M48.8169 5.40945C48.9978 4.92488 49.1502 4.32905 49.5237 3.95939C49.8608 3.82309 49.9286 3.86775 50.2633 3.96579C50.0476 4.55843 49.8628 5.17852 49.8105 5.81031L48.8169 5.40945Z" fill="#353C3A"/>
<path d="M46.8613 5.72473C46.5043 5.47925 46.0937 5.22869 45.8048 4.9015C45.6174 4.68943 45.5193 4.45862 45.5324 4.17586L45.7202 4.08323C46.5108 4.25659 46.8488 4.90326 47.2992 5.51178L46.8613 5.72473Z" fill="#353C3A"/>
<path d="M45.68 6.87053C45.5313 6.85212 45.3637 6.83888 45.2193 6.79632C44.9781 6.72519 44.9393 6.62527 44.8477 6.41806C44.9505 6.27382 44.9751 6.234 45.1385 6.16221C45.5333 5.98874 45.9143 6.07663 46.301 6.22132L45.9341 6.85487L45.68 6.87053Z" fill="#353C3A"/>
<path d="M47.6503 3.19029C47.7837 3.24797 47.9146 3.31678 47.999 3.44052C48.3373 3.93732 48.2806 4.92906 48.2192 5.50471L47.749 5.3651C47.6846 5.29452 47.6346 5.23839 47.5949 5.15028C47.3178 4.53581 47.4323 3.80179 47.6503 3.19029Z" fill="#353C3A"/>
<path d="M45.6807 6.87053L45.9348 6.85487C45.6251 8.02614 45.4581 9.21076 46.1064 10.3112C46.5692 11.0967 47.3198 11.6255 48.1069 12.0517C47.3956 12.2277 46.7245 12.4329 46.0763 12.7872C45.8482 12.4269 43.6864 11.5491 43.1181 11.1191C42.0693 10.3255 41.5506 9.27141 41.3618 7.9849C41.6772 7.88918 41.9979 7.63245 42.3035 7.4882C43.3844 6.97816 44.4996 6.84936 45.6807 6.87053Z" fill="#EBB19F"/>
<path d="M56.6375 19.1794C56.6705 19.1661 56.7047 19.1542 56.7378 19.1393C57.1028 18.9757 57.9035 17.523 58.231 17.1201C60.1035 14.8134 62.6477 13.4357 65.6616 13.5008C66.2284 13.513 66.9077 13.5344 67.447 13.6935C67.7073 13.77 67.7514 13.811 67.8925 14.0374C67.8065 15.6364 65.7057 18.1634 64.5003 19.2478C62.0158 21.4831 58.9291 22.7692 55.8082 23.8371C57.4293 21.7843 59.3261 19.7698 61.3552 18.1195C62.061 17.5454 65.0418 15.7211 65.258 15.3458C65.162 15.2833 65.1488 15.2435 65.0297 15.2608C62.3345 15.6528 57.1425 21.19 55.5303 23.2835C55.7343 21.8581 56.085 20.5119 56.6375 19.1794Z" fill="#97A898"/>
<path d="M53.2962 23.236L53.3315 23.1438C53.2609 22.868 52.822 22.8098 52.5642 22.7584C48.9212 22.0306 44.7942 21.4761 42.3427 18.3379C41.959 17.8468 41.2842 16.8746 41.3627 16.2578C41.8828 15.8129 43.417 15.6579 44.0828 15.6205C47.4512 15.4309 50.6319 17.2275 52.725 19.7673C53.2268 20.3754 53.6193 21.3243 54.1807 21.8178L54.3108 21.5757C54.3681 21.9163 54.3913 22.1844 54.3417 22.5303C53.937 22.4007 53.2973 21.5696 52.9169 21.2684C50.77 19.5665 47.0042 17.2519 44.1627 17.3335L44.0893 17.4337C44.797 17.9849 45.993 18.2039 46.8372 18.4967C49.3839 19.3801 52.2234 21.0553 53.8465 23.2584L53.7594 23.3563C53.6182 23.3242 53.4197 23.3058 53.2962 23.236Z" fill="#97A898"/>
<path d="M60.4307 2.48827C61.7056 4.08191 62.1842 5.85287 61.9636 7.87748C61.6681 10.5973 60.1451 13.1403 58.0178 14.8297L57.9296 14.8994C58.4215 12.4726 58.7865 9.91444 59.5077 7.55106C59.6654 7.03694 60.0161 6.10861 59.7558 5.61919L59.5739 5.69198C58.4634 7.4496 57.9009 12.6258 57.2249 14.9301C56.0615 13.1313 56.1618 10.2063 56.5985 8.18086C57.033 6.16397 58.0057 3.97129 59.811 2.83664C60.0117 2.71081 60.2201 2.59777 60.4307 2.48827Z" fill="#97A898"/>
<path d="M50.2629 3.96579C51.0832 2.74898 51.5657 2.20519 52.9805 1.79562C53.4458 2.77831 53.8539 3.7566 54.156 4.80281C54.327 5.39302 54.6258 7.59981 54.8806 7.92701C53.9763 8.10974 53.3488 8.59618 52.8459 9.36174C52.566 9.78818 52.3469 10.2742 52.1444 10.7422C51.9205 10.3278 51.558 9.81652 51.4673 9.35765C51.556 9.22609 51.544 9.19588 51.5334 9.03355C51.445 7.6748 50.8054 6.68758 49.8101 5.81032C49.8623 5.17853 50.0472 4.55843 50.2629 3.96579Z" fill="#EBB19F"/>
<path d="M93.4029 23.0445C92.5395 23.0188 91.6793 23.0663 90.8192 23.1381C88.7294 23.5596 86.2194 24.2721 84.9688 26.152C84.3447 27.0903 84.0667 28.2491 84.2884 29.3626C84.4517 30.1805 84.8895 30.9282 85.5975 31.3877C86.2525 31.8126 87.1932 32.0067 87.9596 31.8349C88.5959 31.6923 89.1374 31.2795 89.4804 30.7297C89.8697 30.1054 89.9833 29.3134 89.8156 28.5998C89.712 28.1594 89.411 27.8129 89.1186 27.476C88.6328 26.9165 88.1704 26.3838 88.6742 25.4931C89.0845 24.7689 90.0572 24.3374 90.8291 24.1592C92.0223 23.8837 93.4482 23.9679 94.5025 24.6369C95.5336 25.2914 96.1092 26.3666 96.364 27.5367C96.6783 28.988 96.7522 31.1053 95.9063 32.3726C95.139 33.5226 93.1868 33.9742 90.9937 34.4815C87.8506 35.2086 84.2124 36.0502 82.8581 39.2264C82.3372 40.4472 82.4931 41.7005 82.6105 42.6438C82.6758 43.1684 82.7291 43.5971 82.6475 43.8712C82.6618 43.89 82.6762 43.9087 82.6905 43.9276C82.8601 44.156 82.9973 44.4024 83.1346 44.649C83.2348 44.829 83.3351 45.0091 83.4481 45.1825C84.3899 46.6302 85.6603 47.2595 87.3398 47.5182C89.8741 47.9087 92.684 47.3523 94.7627 45.8124C95.259 45.4447 96.1765 44.6184 96.2746 43.9807C96.2831 43.9919 96.2915 44.0029 96.2996 44.0141L96.3099 44.029C96.6138 44.4844 96.7222 44.94 96.8241 45.3686C97.0383 46.2697 97.2241 47.051 99.1396 47.4583C100.577 47.7639 102.802 47.6091 104.077 46.7615C104.338 46.5882 104.607 46.3185 104.658 45.9979C104.665 45.9557 104.666 45.9244 104.666 45.8909C104.666 45.8644 104.665 45.8365 104.665 45.8006C104.643 45.7803 104.625 45.7625 104.609 45.7468C104.514 45.6539 104.497 45.6366 104.324 45.641C104.071 45.6475 103.812 45.6938 103.553 45.7401C102.895 45.8577 102.238 45.9751 101.688 45.4379C100.872 44.6411 100.888 42.7965 100.898 41.6133C100.899 41.5218 100.899 41.4344 100.9 41.3516C100.92 38.793 100.925 36.2344 100.917 33.6757C100.907 27.8911 100.722 23.262 93.4029 23.0445ZM96.0198 33.7246L96.3352 33.7149L96.4301 33.847C96.5209 34.5829 96.4949 35.3228 96.469 36.0626C96.457 36.4013 96.4451 36.7401 96.4444 37.0783C96.4434 37.5246 96.4585 37.9789 96.4738 38.4362C96.5102 39.5297 96.5472 40.6407 96.3662 41.6956C96.2647 42.2916 96.0463 42.8621 95.7254 43.3748C95.0196 44.4998 93.8539 45.1994 92.5715 45.4731C91.0529 45.7972 89.8608 45.4616 88.5838 44.6427C88.5061 44.5047 88.431 44.3729 88.3587 44.2461C87.6118 42.936 87.1659 42.1538 87.3167 40.405C87.6008 37.1023 90.8829 35.8751 93.5772 34.8678L93.7845 34.7903L93.929 34.736C94.0301 34.6979 94.1422 34.6579 94.2605 34.6156L94.2622 34.615C94.8277 34.4129 95.5401 34.1584 95.9273 33.8114C95.9401 33.8001 95.9526 33.7886 95.9649 33.7769C95.9833 33.7595 96.0013 33.7419 96.0198 33.7246Z" fill="#353C3A"/>
<path d="M93.8254 34.775C93.7922 34.7874 93.759 34.7999 93.7256 34.8123L93.7846 34.7903L93.8254 34.775Z" fill="#EAE9E8"/>
<path d="M17.914 10.0017C18.4484 9.94311 19.0286 9.96284 19.5645 10.0157C21.63 10.2026 23.5348 11.2086 24.8538 12.8089C25.7345 13.8963 26.2474 15.2147 26.0868 16.6243C25.9929 17.4493 25.6847 18.2468 25.0153 18.7722C24.2999 19.3339 23.275 19.6124 22.3732 19.5011C21.6138 19.4073 20.951 19.0057 20.488 18.3993C20.0758 17.8595 19.8962 17.0558 19.997 16.387C20.2184 14.9183 21.7566 14.7832 22.733 14.0433C22.9954 13.8445 23.1055 13.643 23.1528 13.3208C23.0931 12.9446 22.9398 12.6991 22.6867 12.4264C21.7474 11.4143 20.3174 10.9475 18.9634 10.9137C17.7971 10.8843 16.6425 11.1953 15.7958 12.0319C13.7741 14.0292 14.3287 20.3324 14.3347 23.0667C15.6882 23.0794 23.4379 22.84 24.1363 23.3541C24.2049 23.5817 24.1749 23.7136 24.1164 23.9411C23.5859 24.3038 15.684 24.1117 14.3269 24.1314L14.3381 31.9521C15.0355 31.9535 15.7361 31.9625 16.4328 31.9334C21.3391 31.7284 19.8702 28.1868 21.0494 27.0138C21.1729 26.891 21.2372 26.9246 21.4077 26.9246C21.7491 27.3775 21.5951 35.8448 21.5949 37.1157C21.5986 37.414 21.5772 37.7059 21.5527 38.0028L21.342 38.1747C21.069 38.178 21.002 38.2204 20.7886 38.0381C20.6219 36.6643 20.2281 34.9217 19.2027 33.9364C17.9314 32.7146 15.9592 32.9708 14.338 32.9915C14.3286 35.3253 13.8126 43.829 15.3083 45.4505C16.1268 46.3379 17.6269 46.2206 18.2034 46.943L18.1779 47.1009C17.8574 47.2784 17.4638 47.2884 17.1047 47.3032C16.0738 47.3459 6.81209 47.3233 6.30327 47.1687C6.20137 47.1378 6.24063 47.132 6.1352 47.1454C6.11524 47.148 6.09594 47.154 6.07642 47.1583L6.02481 47.0366C6.1642 46.5145 8.28465 46.1018 8.89107 45.4688C10.2203 44.0812 9.739 35.4015 9.72577 33.009C8.79193 32.9941 6.92348 33.3203 6.22221 32.7445C6.09186 32.4898 6.05569 32.4425 6.08513 32.1624C6.60322 31.6991 8.97962 31.9206 9.71673 31.9183C9.72864 29.3102 9.72687 26.702 9.71143 24.0938C8.57699 24.1149 7.05636 24.3147 6.02724 23.7717L6 23.4467C6.70744 22.8562 8.79799 23.0732 9.71827 23.0805C9.67713 19.6933 9.7261 15.6595 11.9727 12.8852C13.4597 11.0489 15.6362 10.2393 17.914 10.0017Z" fill="#353C3A"/>
<path d="M34.3383 8.28584L34.4655 8.31088C34.6387 8.51357 34.639 8.6223 34.6523 8.88058C34.7973 11.6871 34.6414 14.5841 34.6403 17.4007L34.6356 35.2196C34.6353 37.3587 34.3282 43.1129 35.0083 44.7919C35.7632 46.6557 37.5267 46.0673 38.0951 46.9429L38.0063 47.1761C37.4914 47.3765 28.6416 47.2684 27.2138 47.3123C27.1008 47.3121 27.1231 47.3244 27.0388 47.291C26.8222 47.205 26.828 47.1195 26.7373 46.9197C26.9515 46.1845 28.5247 46.4811 29.1663 45.7673C29.7224 45.1486 29.9391 44.3261 30.0408 43.5215C30.2517 41.8538 30.187 40.1403 30.1864 38.4621L30.18 31.3953L30.175 21.2761C30.1777 19.0296 30.2344 16.7697 30.1263 14.5257C30.0075 12.0578 30.0913 11.5975 27.6517 10.8425C27.4053 10.7662 27.055 10.684 26.8723 10.4913C26.7573 10.37 26.7916 10.3288 26.7888 10.1723L26.8914 10.1853C27.0843 9.96131 27.9702 9.91312 28.2799 9.87375C30.3988 9.60401 32.4184 9.26236 34.3383 8.28584Z" fill="#353C3A"/>
<path d="M70.3198 22.91L70.6517 22.9518C70.6782 22.9932 70.7212 23.0531 70.7399 23.1021C70.9869 23.7464 70.8513 28.0608 70.6021 28.648C70.9583 28.3382 71.1116 27.9007 71.3233 27.4892C72.0721 26.0347 72.9973 24.7584 74.4916 23.995C76.0443 23.2015 78.0591 22.7882 79.7431 23.3549C80.6782 23.6695 81.4337 24.315 81.8626 25.2067C82.3093 26.1369 82.3975 27.2319 82.038 28.206C81.7446 28.9985 81.1558 29.7055 80.3794 30.06C79.6438 30.3958 78.8278 30.3669 78.0834 30.0697C77.3313 29.769 76.6939 29.2319 76.3873 28.4695C75.7962 27.0034 76.5913 26.4731 77.049 25.2677C77.1383 25.0344 77.1218 24.9624 77.0192 24.7437C76.7049 24.5923 76.3752 24.6571 76.0498 24.7351C71.9078 25.7284 70.9362 30.6237 70.8524 34.2768C70.8315 35.1767 70.8645 38.3308 70.8645 38.3308C70.8645 38.3308 70.8303 41.3625 70.8645 42.2334C70.9472 44.3494 71.0928 45.7843 73.3557 46.4632C73.6866 46.5624 74.1078 46.6242 74.3604 46.8724C74.4277 46.9381 74.3946 47.0579 74.3935 47.148C74.3681 47.1673 74.3427 47.1878 74.3174 47.206C74.1773 47.3024 63.638 47.339 63.0535 47.1925L62.9829 46.9497C63.2266 46.0299 64.9977 46.4904 65.6803 45.6215C66.02 45.189 66.1512 44.6253 66.2284 44.0922C66.6442 41.2312 66.4435 38.1398 66.4368 35.2434C66.4313 32.844 66.5846 30.288 66.2582 27.9174C65.8049 24.6186 64.604 26.1673 63.2399 25.1283C63.1208 24.8679 63.1395 24.8401 63.2046 24.557C65.5281 24.1171 68.1076 24.0974 70.2437 22.9516L70.3198 22.91Z" fill="#353C3A"/>
</g>
<defs>
<clipPath>
<rect width="98.6667" height="47.5185" fill="white" transform="translate(6 0.283302)"/>
</clipPath>
</defs>
</symbol>

<symbol id="map" width="24" height="24" viewBox="0 0 24 24" fill="none">
<path d="M12.0001 14C14.2061 14 16.0001 12.206 16.0001 10C16.0001 7.794 14.2061 6 12.0001 6C9.79406 6 8.00006 7.794 8.00006 10C8.00006 12.206 9.79406 14 12.0001 14ZM12.0001 8C13.1031 8 14.0001 8.897 14.0001 10C14.0001 11.103 13.1031 12 12.0001 12C10.8971 12 10.0001 11.103 10.0001 10C10.0001 8.897 10.8971 8 12.0001 8Z" fill="#030C01"/>
<path d="M11.4201 21.814C11.5893 21.9349 11.7921 21.9998 12.0001 21.9998C12.2081 21.9998 12.4108 21.9349 12.5801 21.814C12.8841 21.599 20.0291 16.44 20.0001 10C20.0001 5.589 16.4111 2 12.0001 2C7.58909 2 4.00009 5.589 4.00009 9.995C3.97109 16.44 11.1161 21.599 11.4201 21.814ZM12.0001 4C15.3091 4 18.0001 6.691 18.0001 10.005C18.0211 14.443 13.6121 18.428 12.0001 19.735C10.3891 18.427 5.97909 14.441 6.00009 10C6.00009 6.691 8.69109 4 12.0001 4Z" fill="#030C01"/>
</symbol>

<symbol id="menu" width="24" height="24" viewBox="0 0 24 24" fill="none">
<path d="M4 6H20V8H4V6ZM4 11H20V13H4V11ZM4 16H20V18H4V16Z" fill="#030C01"/>
</symbol>

<symbol id="phone" width="24" height="24" viewBox="0 0 24 24" fill="none">
<path d="M17.7073 12.293C17.6145 12.2 17.5043 12.1263 17.383 12.076C17.2617 12.0257 17.1317 11.9998 17.0003 11.9998C16.869 11.9998 16.739 12.0257 16.6176 12.076C16.4963 12.1263 16.3861 12.2 16.2933 12.293L14.6993 13.887C13.9603 13.667 12.5813 13.167 11.7073 12.293C10.8333 11.419 10.3333 10.04 10.1133 9.30096L11.7073 7.70696C11.8003 7.61417 11.874 7.50397 11.9243 7.38265C11.9746 7.26134 12.0005 7.13129 12.0005 6.99996C12.0005 6.86862 11.9746 6.73858 11.9243 6.61726C11.874 6.49595 11.8003 6.38575 11.7073 6.29296L7.70733 2.29296C7.61455 2.20001 7.50434 2.12627 7.38303 2.07596C7.26171 2.02565 7.13167 1.99976 7.00033 1.99976C6.869 1.99976 6.73896 2.02565 6.61764 2.07596C6.49633 2.12627 6.38612 2.20001 6.29333 2.29296L3.58133 5.00496C3.20133 5.38496 2.98733 5.90696 2.99533 6.43996C3.01833 7.86396 3.39533 12.81 7.29333 16.708C11.1913 20.606 16.1373 20.982 17.5623 21.006H17.5903C18.1183 21.006 18.6173 20.798 18.9953 20.42L21.7073 17.708C21.8003 17.6152 21.874 17.505 21.9243 17.3837C21.9746 17.2623 22.0005 17.1323 22.0005 17.001C22.0005 16.8696 21.9746 16.7396 21.9243 16.6183C21.874 16.4969 21.8003 16.3867 21.7073 16.294L17.7073 12.293ZM17.5803 19.005C16.3323 18.984 12.0623 18.649 8.70733 15.293C5.34133 11.927 5.01533 7.64196 4.99533 6.41896L7.00033 4.41396L9.58633 6.99996L8.29333 8.29296C8.1758 8.41041 8.08938 8.55529 8.04189 8.71453C7.9944 8.87376 7.98733 9.04231 8.02133 9.20496C8.04533 9.31996 8.63233 12.047 10.2923 13.707C11.9523 15.367 14.6793 15.954 14.7943 15.978C14.9569 16.0129 15.1256 16.0064 15.285 15.9591C15.4444 15.9117 15.5893 15.825 15.7063 15.707L17.0003 14.414L19.5863 17L17.5803 19.005Z" fill="#030C01"/>
</symbol>

<symbol id="right-arrow" width="24" height="24" viewBox="0 0 24 24" fill="none">
<path d="M11.293 17.293L12.707 18.707L19.414 12L12.707 5.29297L11.293 6.70697L15.586 11H6V13H15.586L11.293 17.293Z" fill="#030C01"/>
</symbol>

<symbol id="top-arrow" width="24" height="24" viewBox="0 0 24 24" fill="none">
<path d="M18 13.414L19.414 12L12.707 5.29303L6 12L7.414 13.414L11.707 9.12103V18.707H13.707V9.12103L18 13.414Z" fill="#030C01"/>
</symbol>

<symbol id="twitter" viewBox="0 0 24 24" fill="none">
<path d="M17.1761 4.24268H19.9362L13.9061 11.0201L21 20.2427H15.4456L11.0951 14.6493L6.11723 20.2427H3.35544L9.80517 12.9935L3 4.24268H8.69545L12.6279 9.3553L17.1761 4.24268ZM16.2073 18.6181H17.7368L7.86441 5.78196H6.2232L16.2073 18.6181Z" fill="#030C01"/>
</symbol>

<symbol id="x" width="24" height="24" viewBox="0 0 24 24" fill="none">
<path d="M16.192 6.34424L11.949 10.5862L7.70697 6.34424L6.29297 7.75824L10.535 12.0002L6.29297 16.2422L7.70697 17.6562L11.949 13.4142L16.192 17.6562L17.606 16.2422L13.364 12.0002L17.606 7.75824L16.192 6.34424Z" fill="#030C01"/>
</symbol>

</svg>